<svg data-component="icon" viewBox="0 0 24 24" style="width: 20px; height: 20px;">
  <path fill="currentColor"
    d="M 12 8 L 12 4 L 13.5859 4 L 14 4.41406 L 14 8 L 17.5859 8 L 18 8.41406 L 18 10 L 14 10 C 12.8954 10 12 9.10457 12 8 Z M 4 20 L 4 4 C 4 2.89543 4.89543 2 6 2 L 13.5859 2 L 13.7832 2.00977 C 14.2411 2.05517 14.6717 2.25769 15 2.58594 L 19.4141 7 C 19.7891 7.37504 20 7.88368 20 8.41406 L 20 13 L 18 13 L 18 8.41406 L 13.5859 4 L 6 4 L 6 20 L 13 20 L 13 22 L 6 22 C 4.89543 22 4 21.1046 4 20 Z M 20 16 L 20 18 L 22 18 L 22 20 L 20 20 L 20 22 L 18 22 L 18 20 L 16 20 L 16 18 L 18 18 L 18 16 L 20 16 Z"/>
</svg>