<svg width="212" height="212" viewBox="0 0 256 256" fill="none" xmlns="http://www.w3.org/2000/svg">
<path d="M82.452 94H83.452V60.8942C84.9813 60.6845 86.4942 60.4717 88.0043 60.2594L88.0053 60.2592C99.6752 58.618 111.18 57 128.832 57H128.857C145.035 57 151.507 57 171.218 60.4765V94H172.218V59.6381C151.772 56 145.289 56 128.832 56C111.107 56 99.5369 57.6274 87.8621 59.2694C86.0688 59.5217 84.2729 59.7743 82.452 60.0213V94Z" fill="black"/>
<path d="M79.4598 94V60.442C79.1254 60.4719 78.7921 60.5026 78.4598 60.5338C28.2263 65.262 0.664935 85 0.664935 85C0.664935 85 -0.831169 98 0.664935 130C1.89585 156.328 1.1013 169.795 0.780953 173.741C0.711939 174.592 0.664935 175 0.664935 175C0.664935 175 1.021 174.762 1.7347 174.33C4.8916 172.419 15.0458 166.709 32.3325 161H32V160.057C27.4713 161.553 23.4286 163.049 19.8694 164.479C13.2882 167.122 8.36104 169.536 5.07272 171.293C3.7128 172.02 2.63319 172.635 1.83281 173.107C1.84582 172.929 1.85927 172.739 1.87302 172.537C1.9909 170.803 2.13179 168.164 2.22564 164.526C2.41334 157.249 2.41291 145.975 1.66384 129.953C0.916806 113.975 0.917234 102.749 1.10356 95.5258C1.19673 91.9141 1.33636 89.3031 1.45224 87.5991C1.51018 86.7471 1.56218 86.1218 1.59947 85.7116L1.61344 85.5604C1.82229 85.419 2.12003 85.2208 2.50573 84.9724C3.35429 84.426 4.62854 83.6363 6.31874 82.6724C9.69921 80.7448 14.743 78.1208 21.3723 75.353C34.4397 69.8972 53.6669 63.8825 78.4598 61.5383V94H79.4598Z" fill="black"/>
<path d="M78.4598 119.998V120.003L78.4623 120L78.4598 119.998Z" fill="black"/>
<path d="M74.6084 149.977C67.9556 151.011 61.7534 152.199 56 153.481V154.505C62.0698 153.148 68.6442 151.895 75.7255 150.817L74.6084 149.977Z" fill="black"/>
<path d="M175.73 150.674C219.514 157.466 247.973 171.557 253.513 174.467C254.17 174.812 254.504 175 254.504 175L254.523 173.871C254.71 162.012 254.709 151.947 254.708 142.411C254.707 124.257 254.706 108.025 256 85C256 85 230.873 63.759 176.21 60.0904C175.878 60.0681 175.545 60.0464 175.21 60.0254V94H176.21V61.0926C203.221 62.9133 222.957 69.0416 235.963 74.7318C242.552 77.6145 247.415 80.3858 250.624 82.4297C252.228 83.4517 253.419 84.2919 254.204 84.8732C254.53 85.1142 254.786 85.3107 254.973 85.4572C253.707 108.236 253.707 124.407 253.708 142.446C253.709 151.841 253.709 161.742 253.531 173.349C252.604 172.869 251.245 172.185 249.473 171.346C245.867 169.637 240.55 167.284 233.691 164.696C220.18 159.596 200.68 153.581 176.475 149.779L175.73 150.674Z" fill="black"/>
<path d="M125.584 110.277C155.508 110.277 179.767 102.828 179.767 93.6387C179.767 84.4494 155.508 77 125.584 77C95.6591 77 71.4004 84.4494 71.4004 93.6387C71.4004 102.828 95.6591 110.277 125.584 110.277Z" fill="#FFD400" stroke="black" stroke-miterlimit="10" stroke-linecap="round" stroke-linejoin="round"/>
<path d="M178.869 112.236C178.869 121.428 155.501 128.276 125.574 128.276C95.6482 128.276 71.4004 120.431 71.4004 111.638" stroke="black" stroke-miterlimit="10" stroke-linecap="round" stroke-linejoin="round"/>
<path d="M174.809 110.278C167.428 115.192 152.46 118.822 134.508 119.732" stroke="black" stroke-miterlimit="10" stroke-linecap="round" stroke-linejoin="round"/>
<path d="M178.867 112.236L179.757 93.6388" stroke="black" stroke-miterlimit="10" stroke-linecap="round" stroke-linejoin="round"/>
<path d="M71.3996 111.638C71.3996 104.609 70.166 102.813 71.3996 93.6388" stroke="black" stroke-miterlimit="10" stroke-linecap="round" stroke-linejoin="round"/>
<path d="M173.658 119.319C177.559 121.617 179.767 124.224 179.767 127.001C179.767 136.192 155.51 143.639 125.584 143.639C95.6576 143.639 71.4004 136.192 71.4004 127.001C71.4004 126.485 71.4004 122.069 78.7475 120.021C113.483 134.361 163.748 126.167 173.658 119.319Z" fill="#FFD400" stroke="black" stroke-miterlimit="10" stroke-linecap="round" stroke-linejoin="round"/>
<path d="M173.658 152.389C177.559 154.687 179.767 157.294 179.767 160.07C179.767 169.262 155.261 176.972 125.334 176.972C95.4083 176.972 71.4004 169.262 71.4004 160.07C71.4004 159.555 72.2089 154.847 77.5214 153.208C116.753 169.188 163.748 159.237 173.658 152.389Z" fill="#FFD400" stroke="black" stroke-miterlimit="10" stroke-linecap="round" stroke-linejoin="round"/>
<path d="M178.46 145.424C178.051 154.437 155.501 161.638 125.575 161.638C95.649 161.638 74.2523 154.847 72.209 145.833" stroke="black" stroke-miterlimit="10" stroke-linecap="round" stroke-linejoin="round"/>
<path d="M174.809 143.639C167.428 148.554 152.46 152.184 134.508 153.094" stroke="black" stroke-miterlimit="10" stroke-linecap="round" stroke-linejoin="round"/>
<path d="M178.461 145.424L179.76 127.001" stroke="black" stroke-miterlimit="10" stroke-linecap="round" stroke-linejoin="round"/>
<path d="M72.2081 145.833L71.4004 127.001" stroke="black" stroke-miterlimit="10" stroke-linecap="round" stroke-linejoin="round"/>
<path d="M173.658 152.681C177.559 154.979 179.757 157.596 179.757 160.363C179.757 169.554 155.5 177.001 125.574 177.001C95.6478 177.001 71.3906 169.554 71.3906 160.363C71.3906 157.596 73.5984 154.979 77.49 152.681" stroke="black" stroke-miterlimit="10" stroke-linecap="round" stroke-linejoin="round"/>
<path d="M178.868 179.021C175.935 188.694 155.501 195 125.574 195C95.6482 195 71.4004 187.553 71.4004 178.361" stroke="black" stroke-miterlimit="10" stroke-linecap="round" stroke-linejoin="round"/>
<path d="M174.809 177.001C167.428 181.916 152.46 185.546 134.508 186.455" stroke="black" stroke-miterlimit="10" stroke-linecap="round" stroke-linejoin="round"/>
<path d="M178.867 179.021C180.093 172.875 179.41 167.649 179.757 160.363" stroke="black" stroke-miterlimit="10" stroke-linecap="round" stroke-linejoin="round"/>
<path d="M71.3902 178.582C71.39 175.743 70.5739 168.778 71.3902 160.583" stroke="black" stroke-miterlimit="10" stroke-linecap="round" stroke-linejoin="round"/>
<path d="M107.422 120.501C108.745 120.501 109.817 119.426 109.817 118.1C109.817 116.774 108.745 115.699 107.422 115.699C106.1 115.699 105.027 116.774 105.027 118.1C105.027 119.426 106.1 120.501 107.422 120.501Z" fill="#FFD400" stroke="black" stroke-miterlimit="10" stroke-linecap="round" stroke-linejoin="round"/>
<path d="M94.1605 118.55C95.4831 118.55 96.5553 117.475 96.5553 116.149C96.5553 114.823 95.4831 113.748 94.1605 113.748C92.8378 113.748 91.7656 114.823 91.7656 116.149C91.7656 117.475 92.8378 118.55 94.1605 118.55Z" fill="#FFD400" stroke="black" stroke-miterlimit="10" stroke-linecap="round" stroke-linejoin="round"/>
<path d="M82.5316 115.164C83.8542 115.164 84.9264 114.089 84.9264 112.763C84.9264 111.437 83.8542 110.362 82.5316 110.362C81.2089 110.362 80.1367 111.437 80.1367 112.763C80.1367 114.089 81.2089 115.164 82.5316 115.164Z" fill="#FFD400" stroke="black" stroke-miterlimit="10" stroke-linecap="round" stroke-linejoin="round"/>
<path d="M105.787 153.863C107.11 153.863 108.182 152.788 108.182 151.462C108.182 150.136 107.11 149.061 105.787 149.061C104.465 149.061 103.393 150.136 103.393 151.462C103.393 152.788 104.465 153.863 105.787 153.863Z" fill="#FFD400" stroke="black" stroke-miterlimit="10" stroke-linecap="round" stroke-linejoin="round"/>
<path d="M93.3421 151.093C94.6647 151.093 95.737 150.018 95.737 148.691C95.737 147.365 94.6647 146.29 93.3421 146.29C92.0195 146.29 90.9473 147.365 90.9473 148.691C90.9473 150.018 92.0195 151.093 93.3421 151.093Z" fill="#FFD400" stroke="black" stroke-miterlimit="10" stroke-linecap="round" stroke-linejoin="round"/>
<path d="M82.5316 148.526C83.8542 148.526 84.9264 147.451 84.9264 146.125C84.9264 144.799 83.8542 143.724 82.5316 143.724C81.2089 143.724 80.1367 144.799 80.1367 146.125C80.1367 147.451 81.2089 148.526 82.5316 148.526Z" fill="#FFD400" stroke="black" stroke-miterlimit="10" stroke-linecap="round" stroke-linejoin="round"/>
<path d="M104.155 188.044C105.477 188.044 106.549 186.969 106.549 185.643C106.549 184.317 105.477 183.242 104.155 183.242C102.832 183.242 101.76 184.317 101.76 185.643C101.76 186.969 102.832 188.044 104.155 188.044Z" fill="#FFD400" stroke="black" stroke-miterlimit="10" stroke-linecap="round" stroke-linejoin="round"/>
<path d="M94.1605 185.274C95.4831 185.274 96.5553 184.199 96.5553 182.873C96.5553 181.547 95.4831 180.472 94.1605 180.472C92.8378 180.472 91.7656 181.547 91.7656 182.873C91.7656 184.199 92.8378 185.274 94.1605 185.274Z" fill="#FFD400" stroke="black" stroke-miterlimit="10" stroke-linecap="round" stroke-linejoin="round"/>
<path d="M82.5316 181.888C83.8542 181.888 84.9264 180.813 84.9264 179.487C84.9264 178.161 83.8542 177.086 82.5316 177.086C81.2089 177.086 80.1367 178.161 80.1367 179.487C80.1367 180.813 81.2089 181.888 82.5316 181.888Z" fill="#FFD400" stroke="black" stroke-miterlimit="10" stroke-linecap="round" stroke-linejoin="round"/>
<path d="M33.0002 114H52.5L52.0002 123H32.5L33.0002 114Z" fill="white"/>
<path d="M32.7076 113.927C30.82 112.29 29.0306 110.751 27.2411 109.211C26.8265 108.851 26.4119 108.502 25.9754 108.163C23.2476 106.013 21.4255 103.164 19.7233 100.217C19.4178 99.6928 19.4069 99.2562 19.7561 98.7104C21.0872 96.6692 22.7785 94.9663 24.6988 93.4927C27.1975 91.5824 29.838 89.8795 32.5221 88.264C33.3623 87.7619 33.4059 87.7728 33.9733 88.6242C34.6607 89.6503 34.6498 90.0542 33.7769 90.9165C32.5985 92.0627 31.3655 92.6849 30.1762 93.8201C28.8342 95.1082 27.4921 96.8656 26.3137 98.3174C25.539 99.278 25.4517 99.2671 24.437 98.634C24.2842 98.5358 24.1314 98.4266 23.9787 98.3393C23.7823 98.2192 23.5641 98.1537 23.3895 98.372C23.2367 98.5685 23.2586 98.7977 23.4004 98.9833C23.5095 99.1252 23.6623 99.2344 23.815 99.3326C26.9793 101.33 30.2962 103 33.9951 103.775C35.3154 104.048 36.6356 104.332 37.9886 104.376C38.7851 104.398 38.8397 104.507 38.7524 105.293C38.6105 106.635 38.4905 107.978 38.3487 109.31C38.3269 109.484 38.2505 109.681 38.4687 109.779C38.6651 109.866 38.8179 109.746 38.9706 109.648C39.5816 109.255 40.2036 108.436 40.7382 107.901C41.5784 107.05 43.5315 107.367 44.4807 108.065C44.8299 108.327 45.1354 108.644 45.2664 109.091C45.3427 109.364 45.4628 109.648 45.6373 109.877C45.8556 110.172 46.2047 110.412 46.5648 110.368C46.9358 110.314 46.9358 109.888 47.023 109.583C47.4377 108.218 47.7759 106.843 48.0596 105.445C48.1142 105.162 48.1469 104.867 48.3651 104.638C48.747 104.234 49.1398 104.267 49.7072 104.703C51.3002 105.948 52.3695 107.585 53.2315 109.386C54.6827 112.453 55.3155 115.739 55.7738 119.079C56.0247 120.913 56.3848 122.736 56.5157 124.603C56.6139 126.022 56.7885 127.43 57.0286 128.827C57.4105 131.054 58.2397 133.182 58.7198 135.387C58.9271 136.348 58.6762 137.32 59.1017 138.215C59.3417 138.739 59.6145 138.651 59.2108 139.001C58.2506 139.819 57.0504 139.808 55.9047 139.972C55.5447 140.016 55.4355 140.169 55.381 139.852C55.0864 138.127 54.7918 136.403 54.5081 134.678C54.1698 132.593 53.8425 130.508 53.5152 128.423C53.1988 126.371 52.926 124.319 52.7078 122.245C52.3804 119.09 52.2822 115.914 52.0531 112.759C51.9767 111.711 51.7912 110.663 51.6603 109.615C51.6276 109.31 51.5621 108.993 51.1802 109.026C50.8638 109.048 50.7874 109.321 50.7874 109.593C50.7874 110.139 50.7656 110.696 50.8419 111.231C50.9074 111.667 50.9511 112.093 50.962 112.541C51.0383 114.506 51.0384 116.481 51.2129 118.446C51.3875 120.444 51.5948 122.43 51.7694 124.428C52.0313 127.484 52.6205 130.486 52.9587 133.521C53.0133 134.023 53.3624 134.558 53.0787 135.005C52.7732 135.475 52.1295 135.246 51.6494 135.333C49.2926 135.802 46.903 136.064 44.5244 136.403C42.1239 136.741 39.7344 136.774 37.323 136.806C36.1664 136.828 35.0972 136.468 34.017 136.141C33.5696 136.01 33.4278 135.715 33.4932 135.311C33.8424 133.139 33.6132 130.945 33.8206 128.762C34.017 126.731 33.9297 124.668 33.9406 122.627C33.9515 120.466 33.8969 118.315 33.9297 116.154C33.9406 114.866 33.6896 113.61 33.6787 112.333C33.6787 112.257 33.6787 112.18 33.6569 112.115C33.5587 111.777 33.515 111.296 33.024 111.384C32.4894 111.482 32.6967 111.908 32.7513 112.268C32.7731 112.77 32.8058 113.283 32.7076 113.927Z" fill="#FFD400"/>
<path d="M48.0701 230.606C44.7095 230.639 41.6216 230.759 38.512 230.835C36.908 230.868 35.315 230.453 33.7111 230.628C32.7618 230.726 32.7618 230.65 32.74 229.678C32.7072 228.095 32.8927 226.556 33.4055 225.05C33.5801 224.537 33.8202 224.297 34.3985 224.242C36.548 224.067 38.6538 223.707 40.6506 222.856C41.0215 222.692 41.2725 222.823 41.5344 223.063C42.56 223.98 43.9348 224.449 44.7641 225.628C45.0368 226.01 45.5387 225.836 45.6369 225.334C45.7242 224.941 45.7024 224.537 45.7897 224.144C45.9643 223.401 46.1061 223.281 46.8481 223.456C47.4591 223.598 48.0701 223.631 48.6921 223.663C50.0996 223.751 51.4635 223.543 52.751 222.998C53.4275 222.714 53.8858 222.878 54.4204 223.314C56.7772 225.279 59.2759 227.047 62.0255 228.423C62.5165 228.663 63.0293 228.848 63.5312 229.067C63.7604 229.165 64.0113 229.252 64.2186 229.394C64.5242 229.602 64.5787 229.929 64.5242 230.267C64.4587 230.65 64.1968 230.846 63.8368 230.857C63.1057 230.868 62.3747 230.901 61.6545 230.813C58.4248 230.388 55.1842 230.355 51.9436 230.497C50.5688 230.54 49.194 230.562 48.0701 230.606Z" fill="#FFD400"/>
<path d="M32.8813 222.626C32.1939 223.205 31.8884 223.969 31.6702 224.788C31.2337 226.447 30.6004 228.642 30.6113 230.367C30.6113 230.492 31.1281 231 31.011 231C34.0709 231.927 33.489 231.573 64.5 232L65.5 231.5C65.5 231.5 65.4998 231.499 65.1893 229.853C65.0692 229.274 64.6437 228.914 64.1309 228.674C63.629 228.444 63.1271 228.226 62.6251 228.008C61.0212 227.309 59.3409 226.753 58.0097 225.552C57.6824 225.257 57.3441 224.984 57.0059 224.711C55.4893 223.511 54.049 222.201 52.0959 221.72C51.7249 221.633 51.7467 221.404 51.7904 221.153C51.8995 220.4 52.0195 219.635 52.1504 218.882C52.1832 218.708 52.2595 218.446 52.3687 218.413C53.0015 218.195 52.9906 217.638 53.0452 217.147C53.438 213.512 53.8526 209.888 54.169 206.253C54.6709 200.533 55.4674 194.857 56.3076 189.191C56.9841 184.607 57.6606 180.011 57.9661 175.383C58.1843 172.021 58.3043 168.659 57.8788 165.319C57.0168 158.474 56.2639 151.608 54.9764 144.819C54.8782 144.306 54.911 144.022 55.5329 143.924C56.8313 143.716 58.1188 143.443 59.2863 142.777C59.7119 142.537 59.8646 142.788 59.9628 143.159C60.3884 144.742 60.8139 146.336 61.2394 147.919C61.2722 148.061 61.2831 148.203 61.1631 148.334C60.7266 148.257 60.6721 147.842 60.5084 147.537C60.3011 147.155 60.1592 146.707 59.7882 146.456C59.1881 146.03 58.5771 145.648 58.2061 144.971C58.1188 144.808 57.9224 144.731 57.7369 144.862C57.5624 144.982 57.5296 145.168 57.606 145.343C57.7588 145.714 57.9334 146.129 58.2825 146.325C59.0026 146.74 59.1881 147.428 59.3082 148.159C59.4609 149.054 59.5809 149.96 59.7228 150.866C59.7555 151.117 59.7773 151.379 59.8428 151.619C59.8755 151.75 59.9956 151.87 60.1701 151.859C60.3884 151.859 60.5302 151.728 60.5302 151.532C60.5411 151.128 60.5084 150.735 60.4757 150.331C60.4429 149.949 60.2793 149.556 60.432 149.174C60.5302 149.174 60.6066 149.174 60.6721 149.185C60.7812 149.218 60.8685 149.272 60.9776 149.305C61.905 149.6 62.3633 149.185 62.1778 148.213C62.1232 147.93 62.0578 147.646 61.9814 147.362C60.8794 143.345 59.7228 139.35 58.6644 135.322C57.3878 130.443 56.7113 125.443 55.9693 120.455C55.4456 116.907 54.7364 113.403 53.5798 110.008C52.8706 107.945 51.834 106.079 50.2628 104.529C49.2699 103.546 48.0042 103.066 46.7276 102.629C46.1602 102.433 45.8547 102.203 46.062 101.538C46.182 101.156 46.2039 100.741 46.2257 100.348C46.2584 99.7037 46.553 99.3435 47.1422 99.0269C52.0741 96.4072 53.0997 90.0542 49.2808 85.9826C49.0844 85.7752 48.8225 85.6224 48.6916 85.2294C48.8444 85.0984 48.9426 84.9892 49.0517 84.9128C50.1973 84.1378 49.87 82.7188 48.648 82.2494C48.3425 82.1293 48.026 82.0092 47.7096 81.9765C47.1531 81.9328 46.6403 81.9001 46.2912 81.3652C46.1275 81.1141 45.7783 81.136 45.4837 81.1251C44.7745 81.1141 44.098 81.267 43.4652 81.5726C42.8214 81.8892 42.2649 82.3367 41.5012 81.7691C41.2175 81.5508 40.7265 81.7145 40.3337 81.8782C39.8645 82.0747 39.4062 82.3258 39.0243 82.6642C38.5442 83.1008 38.1187 83.6029 37.3549 83.5265C37.1803 83.5047 36.9294 83.6903 36.8094 83.8431C36.2202 84.629 35.3363 84.8692 34.4744 85.1857C33.9943 85.3604 33.5251 85.5678 33.0668 85.797C30.0117 87.2925 27.1311 89.1045 24.3379 91.0366C22.6576 92.1937 21.0427 93.4817 19.6461 94.9881C17.7257 97.0621 17.7257 98.7104 19.1115 100.806C20.399 102.771 21.9156 104.539 23.5632 106.21C26.0073 108.687 28.6914 110.892 31.3538 113.108C32.0739 113.709 32.3139 114.298 32.2703 115.15C32.1394 117.737 32.0084 120.335 31.9211 122.922C31.6702 130.552 31.4738 138.193 31.2992 145.823C31.0919 155.101 31.1792 164.391 31.1901 173.669C31.201 184.967 31.4738 196.254 31.6265 207.541C31.6702 210.979 31.8011 214.407 31.9211 217.845C31.9539 218.686 32.063 219.515 32.1721 220.356C32.2157 220.672 32.2594 220.978 32.6195 221.175C33.2523 221.535 33.3832 222.19 32.8813 222.626ZM51.834 222.67C52.2923 222.495 52.6196 222.615 52.9579 222.823C53.9835 223.456 55.0419 224.056 55.9148 224.897C57.8461 226.763 60.1047 228.041 62.6033 228.936C63.0507 229.089 63.4762 229.318 63.8909 229.536C64.1527 229.678 64.3928 229.896 64.2946 230.235C64.1964 230.562 63.8799 230.453 63.6399 230.453C62.1014 230.464 60.5739 230.453 59.0354 230.453C57.4642 230.453 55.893 230.442 54.3218 230.464C53.8526 230.464 53.5907 230.344 53.4925 229.831C53.3288 229.067 52.7833 228.586 52.1068 228.237C50.9939 227.659 49.8373 227.244 48.637 226.927C47.4259 226.611 46.3021 226.119 45.2764 225.388C44.8072 225.05 44.6872 224.689 44.7963 224.176C44.84 223.958 44.8945 223.751 44.9709 223.543C45.3091 222.539 45.3201 222.55 46.3566 222.812C48.1897 223.281 50.0337 223.38 51.834 222.67ZM45.6474 217.638C46.1057 217.802 46.2039 218.064 46.1384 218.457C45.9966 219.363 45.8547 220.258 45.691 221.164C45.6692 221.306 45.6365 221.513 45.5383 221.557C44.4253 222.081 44.2944 223.194 43.9125 224.166C43.9016 224.198 43.8689 224.22 43.8143 224.264C43.3561 224.144 43.0069 223.816 42.625 223.543C41.6757 222.856 40.7374 222.146 39.559 221.917C39.2644 221.862 39.0789 221.699 39.0789 221.415C39.068 220.793 38.6752 220.127 39.3298 219.581C39.4935 219.439 39.4608 219.177 39.4826 218.959C39.7554 214.625 40.0609 210.281 40.2245 205.936C40.3555 202.399 40.5846 198.863 40.7483 195.315C40.8792 192.51 40.9556 189.693 41.0974 186.888C41.2611 183.679 41.4575 180.47 41.6321 177.26C41.7521 174.924 41.8503 172.588 41.9703 170.252C42.2649 164.161 42.5377 158.07 42.876 151.979C42.9414 150.801 42.9414 149.589 43.1815 148.421C43.2578 148.41 43.3342 148.399 43.4106 148.388C43.7816 149.982 44.1307 151.576 44.5126 153.169C45.5492 157.503 46.6076 161.825 47.3168 166.235C47.9496 170.132 48.4625 174.04 48.277 178.003C48.0588 182.456 47.9169 186.91 47.5132 191.342C47.2622 194.18 47.044 197.018 46.8149 199.856C46.5203 203.502 46.0402 207.115 45.5819 210.739C45.3528 212.584 45.08 214.429 44.8509 216.273C44.7309 217.267 44.7418 217.31 45.6474 217.638ZM46.4875 221.393C46.6621 220.421 46.804 219.45 46.9349 218.467C46.9786 218.151 47.1204 218.009 47.4368 218.064C48.5498 218.249 49.6736 218.413 50.8084 218.391C51.1357 218.38 51.2666 218.577 51.2121 218.893C51.0702 219.865 50.9066 220.836 50.7647 221.819C50.7211 222.102 50.5247 222.179 50.3065 222.201C49.8373 222.266 49.3681 222.288 48.888 222.332C48.2661 222.321 47.655 222.212 47.0331 222.113C46.6294 222.048 46.4003 221.895 46.4875 221.393ZM59.0681 139.983C59.5809 141.817 59.821 141.566 58.0643 142.417C57.246 142.81 56.3294 142.941 55.4456 143.138C54.9001 143.258 54.6164 143.083 54.5727 142.505C54.54 142.112 54.4418 141.719 54.3763 141.326C54.3654 140.976 54.5073 140.791 54.8564 140.703C56.0675 140.441 57.246 140.07 58.4134 139.666C58.7299 139.557 58.9699 139.612 59.0681 139.983ZM46.0947 103.219C46.1602 103.23 46.2366 103.262 46.3021 103.284C48.0369 103.797 48.0588 103.83 47.4805 105.598C47.1204 106.668 46.7712 107.738 46.4112 108.807C46.3784 108.906 46.313 109.004 46.1493 109.321C45.4401 107.956 44.8181 106.777 44.2071 105.598C44.0653 105.325 44.1198 105.118 44.4035 104.965C45.0145 104.649 45.4619 104.212 45.6037 103.513C45.6583 103.24 45.8438 103.164 46.0947 103.219ZM36.2529 93.8747C36.7984 93.7328 37.344 93.8419 37.8896 93.8529C39.2207 93.8856 39.7554 93.1652 39.1116 92.019C38.7734 91.4186 38.8825 90.9602 38.9588 90.338C39.1007 89.2682 39.4608 88.5478 40.4319 88.0784C40.7592 87.9147 40.9883 87.5108 41.2175 87.1833C41.4684 86.8231 41.7194 86.703 42.1231 86.9759C42.3631 87.1287 42.6468 87.227 42.9305 87.3034C43.5088 87.4453 44.0435 87.3471 44.3381 86.7794C44.5126 86.441 44.7199 86.2882 45.0909 86.2991C45.7565 86.3101 46.4003 86.1463 47.0004 85.8953C47.4805 85.6879 47.8296 85.8298 48.1788 86.1572C50.361 88.2094 51.223 90.7091 50.4374 93.6127C49.6518 96.4836 47.7423 98.3065 44.7745 98.9287C44.5563 98.9724 44.3381 99.0051 44.1307 99.0379C43.9125 99.0815 43.6943 99.1361 43.7161 99.4308C43.7379 99.6928 43.9452 99.7911 44.1526 99.8675C44.5454 99.9985 44.9273 99.7911 45.4183 99.802C45.3964 101.145 45.1127 102.367 44.6436 103.557C44.2071 104.659 41.9922 104.572 41.4466 103.972C41.1738 103.677 41.2611 103.371 41.3375 103.055C41.5884 102.062 41.8612 101.079 41.9158 100.053C41.9594 99.1361 41.9158 99.0815 41.0865 98.7759C40.7483 98.6449 40.3991 98.5357 40.0718 98.3829C39.679 98.1973 39.1552 98.0227 39.8099 97.4987C39.919 97.4114 39.919 97.2368 39.8426 97.0949C39.7335 96.9093 39.5481 96.8765 39.3626 96.9202C39.1553 96.9748 38.9589 97.0839 38.7515 97.1385C37.5077 97.4769 36.4275 97.1167 35.5655 96.2216C34.6708 95.261 35.009 94.2022 36.2529 93.8747ZM38.6752 104.026C38.6533 103.426 38.8716 103.153 39.4608 103.142C39.7008 103.131 39.9299 102.946 40.2464 103.088C40.2136 104.387 41.0974 104.943 42.2213 105.26C41.8394 105.991 39.8754 108.098 38.9261 108.818C38.6642 108.709 38.7188 108.469 38.7079 108.262C38.697 106.854 38.7188 105.435 38.6752 104.026ZM34.638 96.429C35.2054 97.2477 35.991 97.7825 36.9621 97.9354C37.8132 98.0664 38.5551 98.3938 39.2534 98.8741C39.4935 99.0379 39.7772 99.1252 40.0281 99.278C40.3664 99.4745 40.9229 99.409 41.0211 99.8565C41.1629 100.501 40.9338 101.156 40.7483 101.778C40.661 102.083 40.3009 102.105 40.0172 102.182C38.4678 102.618 36.8966 102.465 35.3472 102.313C32.6085 102.051 28.6042 100.457 26.2473 98.8414C27.022 97.1494 32.5758 91.7789 34.3871 90.982C34.6598 91.4186 34.6926 91.9426 34.8563 92.412C35.0527 92.9796 35.0745 93.4599 34.5944 93.9948C34.0161 94.617 34.1034 95.6649 34.638 96.429ZM43.2688 105.871C43.5852 106.21 43.7816 106.613 43.8907 107.105C43.2797 107.312 42.7559 107.236 42.1995 107.039C42.625 106.33 42.625 106.33 43.2688 105.871ZM33.2632 86.7467C33.6342 86.1682 34.4416 86.0372 35.1836 85.797C35.2381 86.9213 34.518 87.4562 34.1361 88.1657C34.0706 88.133 33.9724 88.1221 33.9506 88.0784C33.7106 87.62 32.9686 87.2052 33.2632 86.7467ZM32.2048 110.925C32.0521 110.958 31.9321 111.067 31.9321 111.22C31.9211 111.58 31.9321 111.94 31.9321 112.322C31.8229 112.29 31.7029 112.301 31.6265 112.235C29.1715 110.106 26.6401 108.065 24.3379 105.762C23.0722 104.496 21.8829 103.153 20.8136 101.712C20.3553 101.101 19.9407 100.446 19.5261 99.8129C18.8278 98.7431 18.8932 97.6843 19.5806 96.6364C19.9843 96.0251 20.4317 95.4575 20.9663 94.9444C21.9374 94.0057 22.9849 93.1433 24.0651 92.3356C26.4656 90.5345 29.0297 88.9953 31.6265 87.4999C32.2812 87.1178 32.303 87.1506 32.7613 87.7728C32.7831 87.8055 32.8049 87.8383 32.8268 87.8601C34.2016 89.8031 34.1907 89.7922 32.3685 91.2658C30.0226 93.1433 27.9386 95.2937 26.0291 97.6079C25.3745 98.4047 25.3854 98.4047 24.4361 97.9899C24.1633 97.8699 23.8905 97.7825 23.6178 97.6734C23.3886 97.5861 23.1704 97.6188 23.0504 97.8371C22.8758 98.1537 23.1158 98.2956 23.3341 98.4484C23.3668 98.4702 23.3995 98.4921 23.4323 98.503C25.6581 99.4308 27.6767 100.784 29.9135 101.69C32.063 102.564 34.2561 103.186 36.5911 103.197C36.7002 103.197 36.8093 103.208 36.9185 103.208C37.8241 103.251 37.8459 103.251 37.8568 104.146C37.8786 105.718 37.8677 107.29 37.8786 108.862C37.8786 109.222 37.9005 109.593 37.9768 109.954C38.1187 110.543 38.4678 110.652 38.9152 110.237C39.5481 109.637 40.17 109.015 40.7374 108.338C41.1738 107.825 41.6321 107.661 42.2649 107.891C42.7887 108.076 43.3451 108.098 43.8907 108.022C44.3271 107.956 44.5672 108.12 44.7527 108.502C45.0364 109.091 45.3528 109.67 45.6692 110.248C45.822 110.532 45.9093 110.903 46.3239 110.892C46.7494 110.871 46.7931 110.478 46.8913 110.183C47.3823 108.731 47.8514 107.268 48.3424 105.817C48.4843 105.413 48.5498 104.965 48.9207 104.518C49.6845 105.042 50.2628 105.642 50.7429 106.33C51.714 107.716 52.445 109.211 52.9688 110.827C54.1363 114.451 54.8019 118.195 55.3583 121.95C56.1439 127.332 56.9623 132.713 58.5226 137.942C58.7408 138.673 58.719 138.728 57.9879 138.968C57.0168 139.295 56.0457 139.59 55.0528 139.863C54.2672 140.081 54.2126 140.027 54.0708 139.197C53.8308 137.723 53.6234 136.239 53.3834 134.765C52.8488 131.447 52.2705 128.139 51.954 124.799C51.7576 122.725 51.7031 120.64 51.5612 118.566C51.3539 115.357 51.1357 112.159 50.9066 108.949C50.8847 108.589 50.7975 108.229 50.7211 107.869C50.6556 107.596 50.5138 107.378 50.1864 107.476C49.9137 107.563 49.9464 107.792 49.9791 108.022C50.4374 111.798 50.5356 115.597 50.7211 119.385C50.9502 124.21 51.5721 128.98 52.3577 133.739C52.5105 134.689 52.6196 134.809 51.3976 135.093C49.1171 135.617 46.804 135.922 44.4799 136.162C41.7521 136.446 39.0134 136.403 36.2747 136.173C35.2163 136.086 34.1907 135.813 33.165 135.573C32.6086 135.442 32.4885 135.136 32.5103 134.634C32.554 133.39 32.5431 132.145 32.5758 130.912C32.7395 126.098 32.9141 121.273 33.0777 116.459C33.1323 114.811 32.9904 113.174 32.7177 111.547C32.6958 111.405 32.6522 111.264 32.5867 111.133C32.4994 110.969 32.3576 110.903 32.2048 110.925ZM53.1761 139.197C53.1106 139.252 53.0342 139.306 52.9688 139.35C51.4194 138.498 49.87 137.647 48.3206 136.796C48.3861 136.424 48.6589 136.49 48.8334 136.457C49.9027 136.228 50.972 136.031 52.0413 135.802C52.3578 135.737 52.6414 135.671 52.7069 136.086C52.8706 137.123 53.0233 138.16 53.1761 139.197ZM41.1847 137.189C40.8465 137.756 40.4537 138.007 40.1045 138.313C39.188 139.088 38.2605 139.852 37.2785 140.551C36.8966 140.823 36.5693 140.878 36.2201 140.518C35.0526 139.306 34.1034 137.942 33.1214 136.523C35.7619 137.047 38.4024 137.178 41.1847 137.189ZM32.9141 219.352C32.6413 216.874 32.5867 214.396 32.554 211.907C32.3903 199.234 32.4558 186.43 32.4449 173.756C32.434 164.543 32.4449 155.538 32.5103 146.325C32.5322 143.662 32.3358 140.922 32.4449 138.258C32.4558 138.04 32.4994 137.833 32.5322 137.505C33.0996 137.876 33.3832 138.389 33.7324 138.826C34.3434 139.601 34.8999 140.42 35.6091 141.107C36.4384 141.915 36.7439 141.948 37.7041 141.293C39.0898 140.343 40.3882 139.263 41.6212 138.127C42.4068 137.396 43.3015 137.112 44.3599 136.97C45.8874 136.752 47.1859 137.036 48.4843 137.865C49.8373 138.728 51.2666 139.47 52.696 140.201C53.2088 140.474 53.438 140.823 53.5252 141.38C54.6164 147.941 55.7075 154.49 56.4603 161.094C56.8531 164.576 57.12 168.474 57 172C56.88 175.799 56.5346 179.745 56 183.5C55.0944 190.006 54.3545 195.915 53.6234 202.443C53.1979 206.22 52.8597 209.997 52.4778 213.774C52.3796 214.756 52.2705 215.739 52.1941 216.721C52.1504 217.299 51.9213 217.54 51.3103 217.561C49.6191 217.627 47.9606 217.387 46.313 217.027C45.7674 216.907 45.6256 216.623 45.702 216.088C46.2366 211.962 46.7931 207.836 47.2622 203.698C47.5896 200.871 47.8187 198.033 48.0478 195.195C48.3425 191.516 48.8254 188.679 49 185C49.1637 181.54 49.6855 177.228 49.5 173.756C49.3145 170.394 48.3424 167.076 47.7314 163.779C46.673 158.07 45.1237 152.471 43.847 146.805C43.6288 145.856 43.1924 144.961 43.356 143.924C43.4542 143.323 43.6179 142.919 44.1962 142.657C45.1018 142.264 45.9747 141.806 46.8694 141.38C47.0658 141.282 47.2731 141.206 47.4586 141.096C47.6878 140.965 47.9169 140.769 47.7532 140.485C47.5896 140.19 47.3168 140.321 47.0768 140.431C45.1346 141.282 43.1924 142.112 41.4466 143.345C41.1847 143.531 40.9229 143.738 40.6828 143.967C40.541 144.109 40.541 144.306 40.661 144.469C40.7919 144.633 40.9665 144.644 41.152 144.557C41.5775 144.36 41.883 143.956 42.4832 143.793C42.6468 145.277 42.4177 146.653 42.2868 148.028C41.9485 151.445 41.8394 154.883 41.6539 158.311C41.3811 163.343 40.9229 168.724 40.661 173.756C40.3882 179.083 40.3009 184.05 40.0827 189.388C39.8645 194.606 39.7008 199.823 39.3407 205.041C39.1771 207.41 39.1443 209.789 39.0134 212.158C38.9043 214.232 38.7188 216.306 38.6097 218.391C38.577 218.991 38.3696 219.341 37.8023 219.515C36.5802 219.887 35.3472 220.236 34.0706 220.378C33.0777 220.465 33.0341 220.4 32.9141 219.352ZM37.7259 222.31C36.9403 222.43 36.1547 222.594 35.3472 222.605C35.129 222.605 34.9108 222.594 34.6926 222.605C34.2561 222.615 33.8852 222.572 33.8742 222.004C33.8633 221.524 33.9179 221.196 34.5289 221.109C35.5327 220.956 36.5366 220.738 37.5186 220.465C38.086 220.312 38.2496 220.52 38.2605 221.022C38.2605 221.207 38.2605 221.393 38.2933 221.568C38.3696 222.037 38.1623 222.244 37.7259 222.31ZM34.0488 223.412C35.6964 223.434 37.3331 223.347 38.9152 222.834C39.4171 222.67 39.8427 222.746 40.2791 222.976C40.901 223.292 41.4575 223.696 42.0249 224.1C42.6359 224.558 43.2906 224.962 43.8907 225.443C45.451 226.698 47.2077 227.528 49.1608 227.986C50.0118 228.183 50.8084 228.554 51.594 228.958C51.8231 229.078 52.0413 229.209 52.2377 229.361C52.4996 229.569 52.7396 229.874 52.6524 230.202C52.5432 230.628 52.1068 230.453 51.8122 230.453C48.637 230.464 45.4619 230.464 42.2977 230.464C39.1662 230.464 36.0237 230.464 32.8922 230.464C31.8011 230.464 31.5829 230.278 31.7029 229.198C31.8884 227.571 32.0739 225.934 32.6522 224.384C32.9904 223.423 33.0559 223.401 34.0488 223.412Z" fill="#303030"/>
<path d="M58.7402 151.27C58.7402 151.565 58.6529 151.783 58.4128 151.827C58.151 151.881 58.0091 151.674 57.9655 151.455C57.7691 150.429 57.529 149.403 57.4635 148.355C57.4526 148.148 57.4635 147.886 57.7472 147.842C58.02 147.799 58.1182 148.006 58.1619 148.235C58.3583 149.272 58.5547 150.298 58.7402 151.27Z" fill="#303030"/>
<path d="M57.3226 151.194C57.2899 151.543 57.3444 151.805 57.0607 151.859C56.7225 151.925 56.6134 151.663 56.5479 151.423C56.3079 150.473 56.0896 149.523 55.8605 148.574C55.806 148.334 55.8823 148.126 56.1224 148.05C56.3733 147.973 56.537 148.17 56.6025 148.388C56.8643 149.36 57.1044 150.342 57.3226 151.194Z" fill="#303030"/>
<path d="M38.4239 95.5666C38.4893 95.8613 38.7621 95.7849 38.9585 95.8177C39.1877 95.8722 39.395 95.9596 39.3731 96.2325C39.3404 96.5709 39.0676 96.5927 38.8058 96.5927C38.2493 96.5818 37.7692 96.3853 37.551 95.8722C37.3655 95.4465 37.1364 95.2282 36.6563 95.2828C36.4599 95.3046 36.2853 95.1845 36.2635 94.9881C36.2416 94.737 36.4271 94.5842 36.6563 94.5514C37.3873 94.4532 38.1075 94.5078 38.8276 94.6606C39.0458 94.7152 39.2749 94.7916 39.2531 95.0645C39.2313 95.3374 39.0131 95.3919 38.773 95.4029C38.6312 95.4138 38.4675 95.3592 38.4239 95.5666Z" fill="#303030"/>
<path d="M47.5028 92.543C47.4591 92.7723 47.4155 93.1434 47.3064 93.4818C47.2409 93.6892 47.0445 93.842 46.7826 93.7547C46.5753 93.6783 46.5099 93.4818 46.5644 93.3071C47.0009 91.9863 46.2916 91.0694 45.506 90.1743C45.4297 90.087 45.3533 90.0106 45.3096 89.9123C45.1787 89.694 45.015 89.4429 45.3096 89.2465C45.5169 89.1046 45.7243 89.2246 45.877 89.3993C46.6517 90.2835 47.47 91.1349 47.5028 92.543Z" fill="#303030"/>
<path d="M41.0859 90.6217C41.0859 90.3052 41.1841 89.9668 41.6424 89.9122C42.0789 89.8576 42.5153 90.4034 42.4935 90.982C42.4826 91.3749 42.3298 91.7133 41.8715 91.7242C41.4678 91.7352 41.1078 91.2439 41.0859 90.6217Z" fill="#303030"/>
<path d="M47.6341 88.3404C48.0596 88.3186 48.4524 88.7443 48.4851 89.2901C48.507 89.683 48.4415 90.0323 47.9614 90.0651C47.5577 90.0978 47.0994 89.5193 47.0776 88.9954C47.0558 88.6242 47.2849 88.3513 47.6341 88.3404Z" fill="#303030"/>
<path d="M39.7455 89.9014C39.7564 89.2574 40.5966 88.2313 41.1421 88.0785C41.3385 88.0239 41.5131 88.0676 41.6113 88.2422C41.6877 88.3841 41.644 88.5479 41.524 88.6461C41.0439 89.05 40.6511 89.5194 40.3238 90.0542C40.2474 90.1743 40.0946 90.2398 39.9419 90.1634C39.7891 90.087 39.7346 89.956 39.7455 89.9014Z" fill="#303030"/>
<path d="M47.9601 95.0864C47.9383 95.4247 47.1745 96.298 46.8362 96.3089C46.5307 96.3308 46.3234 96.1234 46.4107 95.8395C46.5744 95.3592 46.8908 94.9554 47.3491 94.7043C47.6437 94.5515 47.9819 94.7916 47.9601 95.0864Z" fill="#303030"/>
<path d="M47.0217 86.4847C47.5782 86.5066 48.0256 86.6376 48.3529 87.0196C48.4511 87.1288 48.5057 87.2707 48.4293 87.4126C48.3638 87.5545 48.222 87.6636 48.0801 87.6091C47.5782 87.4126 47.0872 87.2161 46.5307 87.1724C46.4653 87.1724 46.3889 87.0196 46.3562 86.9323C46.3125 86.7795 46.4107 86.6485 46.5526 86.5939C46.7381 86.5284 46.9126 86.5066 47.0217 86.4847Z" fill="#303030"/>
</svg>
