<svg xmlns="http://www.w3.org/2000/svg" width="16" height="16" fill="none" viewBox="0 0 16 16"><path fill="#5D9CCA" d="M0 10.17v4.2C0 15.27 1.34 16 3 16s3-.73 3-1.63v-4.2c-.94.68-1.97 1-3 .94a4.6 4.6 0 0 1-3-.94"/><path fill="#75BEFF" d="M3 11.8c1.66 0 3-.63 3-1.4S4.66 9 3 9s-3 .63-3 1.4 1.34 1.4 3 1.4"/><path fill="#5D9CCA" d="M10 10.17v4.2c0 .9 1.34 1.63 3 1.63s3-.73 3-1.63v-4.2c-.94.68-1.97 1-3 .94a4.6 4.6 0 0 1-3-.94"/><path fill="#75BEFF" d="M13 11.8c1.66 0 3-.63 3-1.4S14.66 9 13 9s-3 .63-3 1.4 1.34 1.4 3 1.4"/><path fill="#5D9CCA" d="M5 1.17v4.2C5 6.27 6.34 7 8 7s3-.73 3-1.63v-4.2c-.94.68-1.97 1-3 .94a4.6 4.6 0 0 1-3-.94"/><path fill="#75BEFF" d="M8 2.8c1.66 0 3-.63 3-1.4S9.66 0 8 0 5 .63 5 1.4s1.34 1.4 3 1.4"/><path fill="#fff" fill-rule="evenodd" d="M6.95 6.9Q7 6.7 7 6.5v-3C7 2.67 6.33 2 5.5 2H5v1h.5c.28 0 .5.22.5.5v3.08a4 4 0 0 0 .95.32m-1.07 7.93L4.6 13.56a1.5 1.5 0 0 1 0-2.12l1.33-1.33q0 .04.03.08l.03-.02v1.29l-.68.69a.5.5 0 0 0 0 .7l.68.69v.83q0 .24-.12.46M11 2.88l-.44-.44a1.5 1.5 0 0 0-2.12 2.12l1.92 1.81q.45-.3.6-.71l-1.81-1.8a.5.5 0 1 1 .7-.71L11 4.29zM10 14h1.33a1.5 1.5 0 1 0 0-3H10v1h1.33a.5.5 0 1 1 0 1H10z" clip-rule="evenodd" opacity=".6"/><path fill="#489D1A" fill-rule="evenodd" d="M9.15 3.15c.2-.2.5-.2.7 0L13 6.29V4.5a.5.5 0 0 1 1 0v3a.5.5 0 0 1-.5.5h-3a.5.5 0 0 1 0-1h1.8L9.14 3.85a.5.5 0 0 1 0-.7m2.69 9.35a.5.5 0 0 1-.5.5H6.88l1.27 1.27a.5.5 0 1 1-.71.7l-2.12-2.12a.5.5 0 0 1 0-.7l2.12-2.12a.5.5 0 0 1 .7.7L6.89 12h4.45c.27 0 .5.22.5.5M1.15 7.85c.2.2.5.2.7 0L5 4.71V6.5a.5.5 0 0 0 1 0v-3a.5.5 0 0 0-.5-.5h-3a.5.5 0 0 0 0 1h1.8L1.14 7.15a.5.5 0 0 0 0 .7" clip-rule="evenodd"/></svg>