<svg xmlns="http://www.w3.org/2000/svg" width="16" height="16" fill="none" viewBox="0 0 16 16"><path fill="#CCC" d="M3.1 1C2.48 1 2 1.45 2 2v12c0 .55.49 1 1.1 1h9.8c.61 0 1.1-.45 1.1-1V5h-2.9c-.61 0-1.1-.45-1.1-1V1z"/><path fill="#6D8086" d="m11 1 3 3h-3z"/><path fill="#CCC" d="M10.5 12a.5.5 0 1 0 0-1 .5.5 0 0 0 0 1"/><path fill="#333" d="M8.3 10.52q.06-.26.07-.52 0-.26-.07-.52l.6-.44a.25.25 0 0 0 .07-.32l-.25-.44a.25.25 0 0 0-.32-.1l-.68.3a2 2 0 0 0-.9-.51l-.08-.75A.25.25 0 0 0 6.5 7H6a.25.25 0 0 0-.25.22l-.08.75q-.5.15-.9.5l-.67-.3a.25.25 0 0 0-.32.11l-.25.43a.25.25 0 0 0 .07.33l.6.44a2 2 0 0 0 0 1.04l-.6.44a.25.25 0 0 0-.07.32l.25.44a.25.25 0 0 0 .32.1l.68-.3q.38.37.9.51l.07.75A.25.25 0 0 0 6 13h.5a.25.25 0 0 0 .25-.22l.09-.75q.5-.14.9-.5l.67.3.1.01a.3.3 0 0 0 .22-.12l.25-.43a.25.25 0 0 0-.07-.33zM6.24 11a1 1 0 1 1 0-2 1 1 0 0 1 0 2"/></svg>