<svg xmlns="http://www.w3.org/2000/svg" width="16" height="16" fill="none" viewBox="0 0 16 16"><path fill="#fff" d="m10 1 4 4h-4z"/><path fill="#CCC" d="M4 1a1 1 0 0 0-1 1v12a1 1 0 0 0 1 1h9a1 1 0 0 0 1-1V5h-3a1 1 0 0 1-1-1V1z"/><path fill="#FBF1CC" stroke="#CD9F41" d="M9.5 14c0 .26-.22.63-.9.97a6 6 0 0 1-2.6.53 6 6 0 0 1-2.6-.53c-.68-.34-.9-.7-.9-.97 0-.26.22-.63.9-.97A6 6 0 0 1 6 12.5a6 6 0 0 1 2.6.53c.68.34.9.7.9.97Z"/><path fill="#FBF1CC" stroke="#CD9F41" d="M9.5 12c0 .26-.22.63-.9.97a6 6 0 0 1-2.6.53 6 6 0 0 1-2.6-.53c-.68-.34-.9-.7-.9-.97 0-.26.22-.63.9-.97A6 6 0 0 1 6 10.5a6 6 0 0 1 2.6.53c.68.34.9.7.9.97Z"/><path fill="#FBF1CC" stroke="#CD9F41" d="M9.5 10c0 .26-.22.63-.9.97a6 6 0 0 1-2.6.53 6 6 0 0 1-2.6-.53c-.68-.34-.9-.7-.9-.97 0-.26.22-.63.9-.97A6 6 0 0 1 6 8.5a6 6 0 0 1 2.6.53c.68.34.9.7.9.97Z"/><path fill="#FBF1CC" stroke="#CD9F41" d="M9.5 8c0 .26-.22.63-.9.97A6 6 0 0 1 6 9.5a6 6 0 0 1-2.6-.53c-.68-.34-.9-.7-.9-.97 0-.26.22-.63.9-.97A6 6 0 0 1 6 6.5a6 6 0 0 1 2.6.53c.68.34.9.7.9.97Z"/><path fill="#CD9F41" d="M2 8h1v6H2zm7 0h1v6H9z"/></svg>